<svg id="Layer_1" data-name="Layer 1" xmlns="http://www.w3.org/2000/svg" viewBox="0 0 373 373"><title>eye-closed-01</title><rect x="179.13" y="257.1" width="15.69" height="40.35" rx="5" ry="5"/><rect x="134.73" y="248.13" width="15.69" height="40.35" rx="5" ry="5" transform="translate(99.21 -32.42) rotate(19.78)"/><rect x="95.94" y="225.72" width="15.69" height="40.35" rx="5" ry="5" transform="translate(167.24 -13.35) rotate(36.64)"/><rect x="60.58" y="192.09" width="15.69" height="40.35" rx="5" ry="5" transform="translate(183.2 21.04) rotate(48.84)"/><rect x="224.24" y="247.21" width="15.69" height="40.35" rx="5" ry="5" transform="translate(551.36 420.4) rotate(156.56)"/><rect x="262.28" y="227.21" width="15.69" height="40.35" rx="5" ry="5" transform="translate(635.46 273.66) rotate(141.63)"/><rect x="296.33" y="195.01" width="15.69" height="40.35" rx="5" ry="5" transform="translate(667.3 131.72) rotate(131.78)"/><path d="M82.41,190l-10.28,8.67c7.12,8.44,25,24.4,32.4,30.27,20.06,16,40.26,26.21,60,30.42a102.46,102.46,0,0,0,39.51.55c10.94-2,22.07-5.87,34-12,15.53-7.94,30.53-19,44.56-33,2.5-2.48,12.71-13.67,14.93-16.32L287.3,190c-2,2.35-11.9,13.23-14.13,15.44-13,12.95-26.91,23.22-41.21,30.52-10.74,5.49-20.64,9-30.26,10.71a89.05,89.05,0,0,1-34.35-.47c-17.72-3.76-36-13.11-54.45-27.78C105.06,212.17,88.27,196.95,82.41,190Z"/></svg>